<svg xmlns="http://www.w3.org/2000/svg" xmlns:xlink="http://www.w3.org/1999/xlink" viewBox="0 0 1080 533"><defs><style>.cls-1{fill:#fff;}.cls-2,.cls-3,.cls-4{fill:none;stroke:#fff;stroke-miterlimit:10;}.cls-3{stroke-width:0.85px;}.cls-4{stroke-width:0.96px;}</style><symbol id="New_Symbol_4" data-name="New Symbol 4" viewBox="0 0 1200 41.11"><path class="cls-1" d="M1193,1c2.77,0,6,1.31,6,5V40.11H1V6C1,2.31,4.23,1,7,1H1193m0-1H7C3.13,0,0,2.13,0,6V41.11H1200V6c0-3.87-3.13-6-7-6Z"/><circle class="cls-2" cx="14.64" cy="20.17" r="4.57"/><circle class="cls-2" cx="29.48" cy="20.17" r="4.57"/><circle class="cls-2" cx="44.32" cy="20.17" r="4.57"/><polygon class="cls-3" points="138.79 14.3 137.32 15.76 140.69 19.13 131.76 19.13 131.76 21.2 140.69 21.21 137.32 24.57 138.79 26.04 144.67 20.17 138.79 14.3"/><polygon class="cls-3" points="111.88 14.3 113.35 15.76 109.98 19.13 118.91 19.13 118.91 21.2 109.98 21.21 113.35 24.57 111.88 26.04 106 20.17 111.88 14.3"/><path class="cls-3" d="M168.84,14.28s0,.06,0,.09q0,2.66,0,5.33l-5.49-1a.15.15,0,0,1,.07-.07l1.74-1.39c.06-.05.07-.07,0-.12a3.64,3.64,0,0,0-1.49-.54,3.43,3.43,0,0,0-1.91.27,3.64,3.64,0,0,0-2.2,3,3.66,3.66,0,0,0,1.92,3.69,3.66,3.66,0,0,0,2.13.4,3.59,3.59,0,0,0,2.14-1,3.53,3.53,0,0,0,.8-1.13s0-.08.11-.07l1.94.47c.06,0,.08,0,.05.1a5.85,5.85,0,0,1-6.85,3.54,5.76,5.76,0,0,1-3.56-2.59,5.45,5.45,0,0,1-.79-2.19l-.06-.44v-.73a.1.1,0,0,0,0-.08,4.68,4.68,0,0,1,.12-.82,5.76,5.76,0,0,1,2-3.22,5.77,5.77,0,0,1,5-1.19,5.76,5.76,0,0,1,2.37,1.16.1.1,0,0,0,.15,0l1.77-1.41S168.83,14.31,168.84,14.28Z"/><path class="cls-4" d="M1182.15,15.22a.59.59,0,0,1-.61.56h-15.13a.59.59,0,0,1-.61-.56V13.51a.58.58,0,0,1,.61-.56h15.13a.58.58,0,0,1,.61.56Z"/><path class="cls-4" d="M1182.15,21a.58.58,0,0,1-.61.56h-15.13a.58.58,0,0,1-.61-.56v-1.7a.58.58,0,0,1,.61-.56h15.13a.58.58,0,0,1,.61.56Z"/><path class="cls-4" d="M1182.15,26.82a.58.58,0,0,1-.61.56h-15.13a.58.58,0,0,1-.61-.56v-1.7a.58.58,0,0,1,.61-.56h15.13a.58.58,0,0,1,.61.56Z"/><path class="cls-2" d="M1149.44,29.79a4,4,0,0,1-4,4H185.84a4,4,0,0,1-4-4V10.55a4,4,0,0,1,4-4h959.59a4,4,0,0,1,4,4Z"/><path class="cls-1" d="M198.75,21a3.76,3.76,0,1,0-.81.87l3.35,3.35.84-.84Zm-3.12.43a2.51,2.51,0,1,1,2.51-2.51A2.52,2.52,0,0,1,195.64,21.41Z"/><path class="cls-1" d="M218.81,17.24h1.09l.94,3.65c.14.6.26,1.17.38,1.75h.05c.14-.58.27-1.17.43-1.75l1-3.65h1l1,3.65c.16.6.3,1.17.44,1.75h.05c.14-.58.26-1.16.39-1.75l.92-3.65h1l-1.69,6.32h-1.3l-.91-3.39c-.16-.6-.27-1.18-.43-1.82h-.05c-.14.64-.27,1.23-.44,1.83l-.88,3.38h-1.25Z"/><path class="cls-1" d="M228.15,17.24h1.09l.94,3.65c.14.6.26,1.17.38,1.75h.05c.14-.58.27-1.17.43-1.75l1-3.65h1l1,3.65c.16.6.3,1.17.44,1.75h.05c.14-.58.26-1.16.39-1.75l.92-3.65h1l-1.69,6.32h-1.3L233,20.16c-.16-.6-.27-1.18-.43-1.82h-.05c-.14.64-.27,1.23-.44,1.83l-.88,3.38H229.9Z"/><path class="cls-1" d="M237.48,17.24h1.09l.94,3.65c.14.6.26,1.17.38,1.75h.05c.14-.58.27-1.17.43-1.75l1-3.65h1l1,3.65c.16.6.3,1.17.44,1.75h.05c.14-.58.26-1.16.39-1.75l.92-3.65h1l-1.69,6.32h-1.3l-.91-3.39c-.16-.6-.27-1.18-.43-1.82h-.05c-.14.64-.27,1.23-.44,1.83l-.88,3.38h-1.25Z"/><path class="cls-1" d="M246.81,22.91a.78.78,0,1,1,1.55,0,.77.77,0,1,1-1.55,0Z"/><path class="cls-1" d="M250.27,22.28v-8h1.07v8.06c0,.34.14.47.3.47a.91.91,0,0,0,.23,0l.14.81a1.43,1.43,0,0,1-.61.1C250.6,23.71,250.27,23.21,250.27,22.28Z"/><path class="cls-1" d="M253.2,21.92c0-1.38,1.18-2.07,3.87-2.37,0-.81-.26-1.59-1.3-1.59a3.43,3.43,0,0,0-1.88.68l-.42-.74a4.69,4.69,0,0,1,2.48-.82c1.55,0,2.2,1,2.2,2.6v3.87h-.88l-.09-.75h0a3.37,3.37,0,0,1-2.09.91A1.72,1.72,0,0,1,253.2,21.92Zm3.87.09V20.25c-2.11.26-2.83.78-2.83,1.59s.49,1,1.12,1A2.56,2.56,0,0,0,257.07,22Z"/><path class="cls-1" d="M260.14,17.24H261l.09.91h0a3,3,0,0,1,2.12-1.07c1.33,0,1.92.86,1.92,2.47v4h-1.07V19.7c0-1.18-.36-1.69-1.2-1.69-.65,0-1.09.34-1.73,1v4.58h-1.07Z"/><path class="cls-1" d="M267,22.91a.78.78,0,1,1,1.55,0,.77.77,0,1,1-1.55,0Z"/><path class="cls-1" d="M269.87,20.41a3.06,3.06,0,0,1,3-3.33,2.62,2.62,0,0,1,1.85.74l-.55.7A1.85,1.85,0,0,0,273,18c-1.14,0-2,1-2,2.44s.79,2.42,2,2.42a2.24,2.24,0,0,0,1.48-.64l.47.71a3.08,3.08,0,0,1-2,.81C271.16,23.71,269.87,22.5,269.87,20.41Z"/><path class="cls-1" d="M275.53,20.41a2.95,2.95,0,1,1,5.85,0,2.95,2.95,0,1,1-5.85,0Zm4.75,0c0-1.46-.73-2.44-1.82-2.44s-1.82,1-1.82,2.44.74,2.42,1.82,2.42S280.28,21.85,280.28,20.41Z"/><path class="cls-1" d="M283,17.24h.88l.09.91h0a2.78,2.78,0,0,1,2-1.07,1.66,1.66,0,0,1,1.74,1.21,3,3,0,0,1,2.08-1.21c1.3,0,1.92.86,1.92,2.47v4H290.7V19.7c0-1.18-.38-1.69-1.17-1.69a2.32,2.32,0,0,0-1.59,1v4.58h-1.07V19.7c0-1.18-.38-1.69-1.18-1.69a2.37,2.37,0,0,0-1.59,1v4.58H283Z"/><path class="cls-1" d="M296.36,14.33h.78l-3.47,11.31h-.78Z"/><path class="cls-1" d="M297.5,20.41a3.06,3.06,0,0,1,3-3.33,2.62,2.62,0,0,1,1.85.74l-.55.7a1.85,1.85,0,0,0-1.26-.56c-1.14,0-2,1-2,2.44s.79,2.42,2,2.42a2.24,2.24,0,0,0,1.48-.64l.47.71a3.08,3.08,0,0,1-2,.81C298.79,23.71,297.5,22.5,297.5,20.41Z"/><path class="cls-1" d="M303.15,20.41a2.95,2.95,0,1,1,5.85,0,2.95,2.95,0,1,1-5.85,0Zm4.75,0c0-1.46-.73-2.44-1.82-2.44s-1.82,1-1.82,2.44.74,2.42,1.82,2.42S307.9,21.85,307.9,20.41Z"/><path class="cls-1" d="M310.67,17.24h.88l.09.91h0a2.78,2.78,0,0,1,2-1.07,1.66,1.66,0,0,1,1.74,1.21,3,3,0,0,1,2.08-1.21c1.3,0,1.92.86,1.92,2.47v4h-1.07V19.7c0-1.18-.38-1.69-1.17-1.69a2.32,2.32,0,0,0-1.59,1v4.58H314.5V19.7c0-1.18-.38-1.69-1.18-1.69a2.37,2.37,0,0,0-1.59,1v4.58h-1.07Z"/><path class="cls-1" d="M321.45,17.24h.88l.09.73h0a3.27,3.27,0,0,1,2-.88c1.63,0,2.5,1.26,2.5,3.22,0,2.14-1.29,3.41-2.73,3.41a2.93,2.93,0,0,1-1.76-.73l0,1.11v2.13h-1.07Zm4.42,3.07c0-1.39-.47-2.33-1.66-2.33a2.66,2.66,0,0,0-1.69.86v3.31a2.5,2.5,0,0,0,1.55.66C325.1,22.82,325.87,21.87,325.87,20.31Z"/><path class="cls-1" d="M328.66,17.24h.88l.09,1.14h0a2.16,2.16,0,0,1,1.79-1.3,1.56,1.56,0,0,1,.68.13l-.21.94a1.76,1.76,0,0,0-.61-.1c-.53,0-1.17.39-1.6,1.46v4.06h-1.07Z"/><path class="cls-1" d="M332.47,21.92c0-1.38,1.18-2.07,3.87-2.37,0-.81-.26-1.59-1.3-1.59a3.43,3.43,0,0,0-1.88.68l-.42-.74a4.69,4.69,0,0,1,2.48-.82c1.55,0,2.2,1,2.2,2.6v3.87h-.88l-.09-.75h0a3.37,3.37,0,0,1-2.09.91A1.72,1.72,0,0,1,332.47,21.92Zm3.87.09V20.25c-2.11.26-2.83.78-2.83,1.59s.49,1,1.12,1A2.56,2.56,0,0,0,336.34,22Z"/><path class="cls-1" d="M339.41,17.24h.88l.09.73h0a3.27,3.27,0,0,1,2-.88c1.63,0,2.5,1.26,2.5,3.22,0,2.14-1.29,3.41-2.73,3.41a2.93,2.93,0,0,1-1.76-.73l0,1.11v2.13h-1.07Zm4.42,3.07c0-1.39-.47-2.33-1.66-2.33a2.66,2.66,0,0,0-1.69.86v3.31a2.5,2.5,0,0,0,1.55.66C343.06,22.82,343.83,21.87,343.83,20.31Z"/><path class="cls-1" d="M346.05,21.92c0-1.38,1.18-2.07,3.87-2.37,0-.81-.26-1.59-1.3-1.59a3.43,3.43,0,0,0-1.88.68l-.42-.74a4.69,4.69,0,0,1,2.48-.82c1.55,0,2.2,1,2.2,2.6v3.87h-.88L350,22.8h0a3.37,3.37,0,0,1-2.09.91A1.72,1.72,0,0,1,346.05,21.92Zm3.87.09V20.25c-2.11.26-2.83.78-2.83,1.59s.49,1,1.12,1A2.56,2.56,0,0,0,349.93,22Z"/><path class="cls-1" d="M352.29,22.84l.53-.71a2.84,2.84,0,0,0,1.86.75c.83,0,1.25-.44,1.25-1s-.75-.94-1.44-1.2c-.9-.33-1.89-.75-1.89-1.82s.81-1.79,2.17-1.79a3.15,3.15,0,0,1,2,.72l-.51.68a2.35,2.35,0,0,0-1.44-.56c-.79,0-1.16.43-1.16.91s.69.82,1.4,1.09c.91.34,1.92.72,1.92,1.91,0,1-.82,1.89-2.31,1.89A3.8,3.8,0,0,1,352.29,22.84Z"/><path class="cls-1" d="M358.05,21.92c0-1.38,1.18-2.07,3.87-2.37,0-.81-.26-1.59-1.3-1.59a3.43,3.43,0,0,0-1.88.68l-.42-.74a4.69,4.69,0,0,1,2.48-.82c1.55,0,2.2,1,2.2,2.6v3.87h-.88L362,22.8h0a3.37,3.37,0,0,1-2.09.91A1.72,1.72,0,0,1,358.05,21.92Zm3.87.09V20.25c-2.11.26-2.83.78-2.83,1.59s.49,1,1.12,1A2.56,2.56,0,0,0,361.93,22Z"/><path class="cls-1" d="M363.41,26.21l.22-.81a2,2,0,0,0,.6.1c.62,0,.78-.47.78-1.24v-7h1.07v7c0,1.29-.47,2.11-1.73,2.11A2.51,2.51,0,0,1,363.41,26.21Zm1.4-11a.74.74,0,1,1,.74.69A.7.7,0,0,1,364.81,15.25Z"/><path class="cls-1" d="M367.74,20.41a3,3,0,0,1,2.83-3.33c1.61,0,2.52,1.16,2.52,3a4.07,4.07,0,0,1,0,.61h-4.26a2.1,2.1,0,0,0,2.11,2.2,2.86,2.86,0,0,0,1.57-.49l.38.7a3.76,3.76,0,0,1-2.08.65A3,3,0,0,1,367.74,20.41Zm4.42-.52c0-1.27-.57-2-1.56-2a2,2,0,0,0-1.82,2Z"/><path class="cls-1" d="M374,22.84l.53-.71a2.84,2.84,0,0,0,1.86.75c.83,0,1.25-.44,1.25-1s-.75-.94-1.44-1.2c-.9-.33-1.88-.75-1.88-1.82s.81-1.79,2.17-1.79a3.15,3.15,0,0,1,2,.72l-.51.68a2.35,2.35,0,0,0-1.44-.56c-.79,0-1.16.43-1.16.91s.69.82,1.4,1.09c.91.34,1.92.72,1.92,1.91,0,1-.82,1.89-2.31,1.89A3.8,3.8,0,0,1,374,22.84Z"/></symbol></defs><title>flight_date_new_2</title><g id="Capa_2" data-name="Capa 2"><g id="Layer_1" data-name="Layer 1"><rect class="cls-1" y="41" width="1080" height="492"/><image width="1089" height="384" transform="translate(91.37 102.89) scale(0.89)" xlink:href="../../New Layout/Lan_nuevo_fecha_vuelta.png"/><use id="New_Symbol_4-3" data-name="New Symbol 4" width="1200" height="41.11" transform="scale(0.9 1)" xlink:href="#New_Symbol_4"/></g></g></svg>