<svg xmlns="http://www.w3.org/2000/svg" xmlns:xlink="http://www.w3.org/1999/xlink" viewBox="0 0 283 577"><defs><style>.cls-1,.cls-30{fill:none;}.cls-2{fill-rule:evenodd;}.cls-3,.cls-4{fill:#1e1e1e;}.cls-4{stroke:#fff;stroke-width:0.89px;opacity:0.7;}.cls-30,.cls-4,.cls-9{stroke-miterlimit:10;}.cls-5,.cls-7{fill:#5b5b5b;}.cls-5,.cls-6{opacity:0.4;}.cls-6{fill:#6d6d6d;}.cls-8{fill:#222;}.cls-14,.cls-15,.cls-18,.cls-21,.cls-23,.cls-31,.cls-9{fill:#fff;}.cls-9{stroke:#000;}.cls-10{mix-blend-mode:darken;}.cls-11{fill:#009588;}.cls-12{fill:#2b2b2b;opacity:0.3;}.cls-13{clip-path:url(#clip-path);}.cls-14{fill-opacity:0.3;}.cls-15{fill-opacity:0.9;}.cls-16{clip-path:url(#clip-path-2);}.cls-17{opacity:0.9;}.cls-18{font-size:11.63px;}.cls-18,.cls-26,.cls-31{font-family:Roboto-Regular, Roboto;}.cls-19{opacity:0.5;}.cls-20{font-size:23px;font-family:MaterialIcons-Regular, Material Icons;letter-spacing:0.01em;}.cls-21{font-size:17.89px;font-family:Roboto-Medium, Roboto;}.cls-22{letter-spacing:-0.02em;}.cls-24{font-size:10.74px;fill:#212121;font-family:Roboto-Bold, Roboto;}.cls-25{font-weight:700;}.cls-27{letter-spacing:-0.03em;}.cls-28{letter-spacing:0em;}.cls-29{letter-spacing:-0.01em;}.cls-30{stroke:#009588;}.cls-31{font-size:9.31px;}.cls-32{letter-spacing:-0.01em;}</style><clipPath id="clip-path"><polygon class="cls-1" points="219.36 5.79 226.67 16.53 233.97 5.8 219.36 5.79"/></clipPath><clipPath id="clip-path-2"><polygon class="cls-1" points="250.8 16.8 250.8 5.8 242.76 16.8 250.8 16.8"/></clipPath><symbol id="New_Symbol_24" data-name="New Symbol 24" viewBox="0 0 395.83 807"><g id="New_Symbol_9" data-name="New Symbol 9"><g id="New_Symbol_23" data-name="New Symbol 23"><path class="cls-2" d="M74,0h247.8c71.63,0,71.63,32.07,71.63,71.63V735.37c0,39.56,0,70.63-71.63,71.63H74C2.39,807,2.39,774.93,2.39,735.37V71.63C2.39,32.07,2.39,0,74,0Z"/><path class="cls-3" d="M391.05,733.19c0,39.56,2.39,71.63-71.63,71.63H76.4c-74,0-71.63-32.07-71.63-71.62v-659C4.77,34.65,2.39,2.57,76.4,2.59h243c74-.8,71.63,32.07,71.63,71.63Z"/><g id="New_Symbol_6" data-name="New Symbol 6"><path class="cls-4" d="M244.47,763.55c0-7.79,0-14.1-14.1-14.1H159.49c-14.1,0-14.1,6.31-14.1,14.1V764c0,7.79,0,14.1,14.1,14.1h70.88c14.1,0,14.1-6.31,14.1-14.1Z"/><circle class="cls-5" cx="320.62" cy="22.38" r="8.56"/><circle class="cls-6" cx="320.62" cy="22.38" r="4.77"/><circle class="cls-7" cx="320.62" cy="22.38" r="1.19"/><path class="cls-8" d="M245.67,22.28a4.18,4.18,0,0,1-4.18,4.18H154.34a4.18,4.18,0,0,1-4.18-4.18h0a4.18,4.18,0,0,1,4.18-4.18h87.15a4.18,4.18,0,0,1,4.18,4.18Z"/><path class="cls-3" d="M2.39,255.67a1.19,1.19,0,0,1-1.2,1.19h0A1.19,1.19,0,0,1,0,255.67V124.36a1.2,1.2,0,0,1,1.19-1.2h0a1.2,1.2,0,0,1,1.2,1.2Z"/><path class="cls-3" d="M395.83,254.48a1.19,1.19,0,0,1-1.19,1.19h0a1.19,1.19,0,0,1-1.2-1.19V185.24a1.19,1.19,0,0,1,1.2-1.19h0a1.19,1.19,0,0,1,1.19,1.19Z"/></g></g><rect class="cls-9" x="17.6" y="82.71" width="358" height="638"/></g></symbol><symbol id="ic_menu_3" data-name="ic_menu 3" viewBox="0 0 24 24"><rect class="cls-1" width="24" height="24"/><path d="M3,18H21V16H3Zm0-5H21V11H3ZM3,6V8H21V6Z"/></symbol><symbol id="New_Symbol_36" data-name="New Symbol 36" viewBox="0 0 320.4 72"><g id="New_Symbol_34" data-name="New Symbol 34"><g class="cls-10"><rect class="cls-11" width="320.4" height="72"/><rect class="cls-12" width="320.4" height="21.6"/><g class="cls-13"><path class="cls-14" d="M226.67,5.8A10.73,10.73,0,1,0,237.4,16.53,10.73,10.73,0,0,0,226.67,5.8Zm0,18.78a8,8,0,1,1,8-8A8,8,0,0,1,226.67,24.58Z"/><path class="cls-15" d="M226.67,8.48a8,8,0,1,0,8,8A8,8,0,0,0,226.67,8.48Zm0,13.41A5.37,5.37,0,1,1,232,16.53,5.37,5.37,0,0,1,226.67,21.89Z"/><path class="cls-15" d="M226.67,11.16A5.37,5.37,0,1,0,232,16.53,5.37,5.37,0,0,0,226.67,11.16Zm0,8a2.68,2.68,0,1,1,2.68-2.68A2.68,2.68,0,0,1,226.67,19.21Z"/><circle class="cls-15" cx="226.67" cy="16.53" r="2.68"/></g><g class="cls-16"><rect class="cls-14" x="250.81" y="5.8" width="2.69" height="10.73"/><rect class="cls-14" x="248.13" y="5.8" width="2.68" height="10.73"/><rect class="cls-15" x="245.44" y="5.8" width="2.68" height="10.73"/><rect class="cls-15" x="242.76" y="5.8" width="2.68" height="10.73"/></g><rect class="cls-15" x="266.02" y="13.85" width="7.15" height="2.68"/><rect class="cls-15" x="266.02" y="11.16" width="7.15" height="2.68"/><rect class="cls-14" x="266.02" y="8.48" width="7.15" height="2.68"/><rect class="cls-14" x="266.02" y="5.8" width="7.15" height="2.68"/><rect class="cls-14" x="267.8" y="4.9" width="3.58" height="0.89"/><g class="cls-17"><text class="cls-18" transform="translate(281.21 15.41)">12:30</text></g></g><g class="cls-19"><text class="cls-20" transform="translate(275.03 57.24)">search</text></g><text class="cls-21" transform="translate(58.37 50.8)">P<tspan class="cls-22" x="11.43" y="0">r</tspan><tspan x="17.41" y="0">oject X</tspan></text><use width="24" height="24" transform="translate(8.38 34.28)" xlink:href="#ic_menu_3"/></g></symbol></defs><title>creation_1</title><g id="Capa_2" data-name="Capa 2"><g id="Background"><g id="New_Symbol_25" data-name="New Symbol 25"><rect class="cls-23" x="12.29" y="113.53" width="257.45" height="403.97"/><use width="395.83" height="807" transform="scale(0.71 0.71)" xlink:href="#New_Symbol_24"/><use id="New_Symbol_36-3" data-name="New Symbol 36" width="320.4" height="72" transform="translate(13.26 59.25) scale(0.8 0.8)" xlink:href="#New_Symbol_36"/><text class="cls-24" transform="translate(109.39 309.33)"><tspan class="cls-25">Hello Ignacio,</tspan><tspan class="cls-26"><tspan class="cls-27" x="-60.77" y="12.89">Y</tspan><tspan class="cls-28" x="-54.66" y="12.89">our first p</tspan><tspan class="cls-29" x="-8.62" y="12.89">r</tspan><tspan x="-5.09" y="12.89">oject is eager </tspan><tspan class="cls-29" x="61.41" y="12.89">t</tspan><tspan x="64.82" y="12.89">o be created!</tspan></tspan></text><path class="cls-30" d="M166.8,236a5.6,5.6,0,0,1,4.25,1.76,6,6,0,0,1,1.68,4.33v33.4a6.62,6.62,0,0,1-1.68,4.6,5.84,5.84,0,0,1-4.25,2H118a5.7,5.7,0,0,1-4.18-2,6.56,6.56,0,0,1-1.61-4.6V242.1a5.91,5.91,0,0,1,1.61-4.33A5.46,5.46,0,0,1,118,236h12.47v-6.19a5,5,0,0,1,1.62-4,5.37,5.37,0,0,1,4.19-1.38h12.27a5.52,5.52,0,0,1,4.25,1.38,5.08,5.08,0,0,1,1.69,4V236Zm-17.13,0v-6.72H136.22V236Z"/><path class="cls-11" d="M203.24,360.08c0-8-7-14.48-15.54-14.48H97.08c-8.58,0-15.54,6.48-15.54,14.48v1.05c0,8,7,14.48,15.54,14.48H187.7c8.59,0,15.54-6.48,15.54-14.48Z"/><text class="cls-31" transform="translate(113.33 363.22)">Create p<tspan class="cls-32" x="34.7" y="0">r</tspan><tspan x="37.76" y="0">oject</tspan></text></g></g></g></svg>