<svg xmlns="http://www.w3.org/2000/svg" xmlns:xlink="http://www.w3.org/1999/xlink" viewBox="0 0 1438.11 882.78"><defs><style>.cls-1{fill:#fff;}.cls-2{opacity:0.6;}.cls-12,.cls-3{fill:none;stroke:#000;stroke-miterlimit:10;}.cls-16,.cls-31,.cls-4{opacity:0.8;}.cls-16,.cls-31,.cls-5{font-size:18px;font-family:SourceSansPro-Semibold, Source Sans Pro;}.cls-17,.cls-31,.cls-5{font-weight:700;}.cls-6{letter-spacing:-0.02em;}.cls-7{letter-spacing:-0.01em;}.cls-8{letter-spacing:-0.02em;}.cls-9{letter-spacing:-0.01em;}.cls-10{clip-path:url(#clip-path);}.cls-11{opacity:0.2;}.cls-12{stroke-width:2px;}.cls-13{font-size:30px;fill:#12275b;font-family:SourceSansPro-Light, Source Sans Pro;}.cls-14{letter-spacing:-0.01em;}.cls-15{letter-spacing:-0.01em;}.cls-18{font-family:SourceSansPro-Regular, Source Sans Pro;}.cls-19{letter-spacing:-0.07em;}.cls-20{letter-spacing:-0.02em;}.cls-21{letter-spacing:-0.01em;}.cls-22{letter-spacing:-0.02em;}.cls-23{letter-spacing:-0.03em;}.cls-24{letter-spacing:-0.01em;}.cls-25{letter-spacing:-0.01em;}.cls-26{letter-spacing:0em;}.cls-27{letter-spacing:-0.02em;}.cls-28{letter-spacing:0em;}.cls-29{letter-spacing:0em;}.cls-30{letter-spacing:0.01em;}.cls-32{letter-spacing:-0.02em;}.cls-33{letter-spacing:-0.02em;}.cls-34{letter-spacing:-0.06em;}.cls-35{letter-spacing:0.03em;}.cls-36{letter-spacing:-0.04em;}.cls-37{letter-spacing:-0.02em;}</style><clipPath id="clip-path"><rect class="cls-1" y="42" width="1080" height="582"/></clipPath><symbol id="Nuevo_símbolo_2" data-name="Nuevo símbolo 2" viewBox="0 0 1080 41"><g id="New_Symbol_4" data-name="New Symbol 4" class="cls-2"><path d="M1073,1c2.77,0,6,1.31,6,5V40H1V6C1,2.31,4.23,1,7,1H1073m0-1H7C3.13,0,0,2.13,0,6V41H1080V6c0-3.85-3.13-6-7-6Z"/><ellipse class="cls-3" cx="14.64" cy="20.11" rx="4.57" ry="4.56"/><ellipse class="cls-3" cx="29.48" cy="20.11" rx="4.57" ry="4.56"/><ellipse class="cls-3" cx="44.32" cy="20.11" rx="4.57" ry="4.56"/><polygon class="cls-3" points="138.3 14.85 136.88 16.26 140.13 19.5 131.5 19.5 131.5 21.5 140.13 21.5 136.88 24.74 138.3 26.16 143.97 20.5 138.3 14.85"/><polygon class="cls-3" points="111.7 14.85 113.13 16.26 109.87 19.5 118.5 19.5 118.5 21.5 109.87 21.5 113.13 24.74 111.7 26.16 106.03 20.5 111.7 14.85"/><path class="cls-3" d="M168.48,14.48s0,.06,0,.09q0,2.55,0,5.1l-5.27-1a.14.14,0,0,1,.06-.07L165,17.29c.06,0,.07-.07,0-.11a3.5,3.5,0,0,0-1.43-.52,3.3,3.3,0,0,0-1.83.26,3.46,3.46,0,0,0-2.08,2.65,3.54,3.54,0,0,0,.22,2,3.43,3.43,0,0,0,1.58,1.71,3.52,3.52,0,0,0,2,.38,3.45,3.45,0,0,0,2.05-.94,3.38,3.38,0,0,0,.77-1.08s0-.08.1-.06l1.86.45,0,.09a5.62,5.62,0,0,1-6.57,3.39,5.52,5.52,0,0,1-3.42-2.49,7,7,0,0,1-.79-2.37l0-.15v-.7a.09.09,0,0,0,0-.07,4.63,4.63,0,0,1,.15-.9,5.6,5.6,0,0,1,4.71-4.2,5.46,5.46,0,0,1,1.93.09,5.53,5.53,0,0,1,2.27,1.11h.14l1.7-1.35S168.47,14.51,168.48,14.48Z"/><path class="cls-3" d="M1046.1,12.5h14.81a.59.59,0,0,1,.59.59v1.82a.59.59,0,0,1-.59.59h-14.82a.59.59,0,0,1-.59-.59V13.1A.6.6,0,0,1,1046.1,12.5Z"/><rect class="cls-3" x="1045.5" y="18.5" width="16" height="3" rx="0.59" ry="0.59"/><rect class="cls-3" x="1045.5" y="24.5" width="16" height="3" rx="0.59" ry="0.59"/><path class="cls-3" d="M1029.5,29.5a4,4,0,0,1-4,4h-840a4,4,0,0,1-4-4v-19a4,4,0,0,1,4-4h840a4,4,0,0,1,4,4Z"/><path d="M198.75,20.92a3.71,3.71,0,0,0,.64-2.08,3.75,3.75,0,1,0-1.44,2.94l3.35,3.34.84-.84Zm-3.12.43a2.51,2.51,0,1,1,2.51-2.51A2.51,2.51,0,0,1,195.64,21.35Z"/><path d="M219.81,18.18h1.09l.94,3.65c.14.6.26,1.17.38,1.75h.05c.14-.58.27-1.17.43-1.75l1-3.65h1l1,3.65c.16.6.3,1.17.44,1.75h.05c.14-.58.26-1.16.39-1.75l.92-3.65h1l-1.69,6.32h-1.3l-.91-3.39c-.16-.6-.27-1.18-.43-1.82h-.05c-.14.64-.27,1.23-.44,1.83l-.88,3.38h-1.25Z"/><path d="M229.15,18.18h1.09l.94,3.65c.14.6.26,1.17.38,1.75h.05c.14-.58.27-1.17.43-1.75l1-3.65h1l1,3.65c.16.6.3,1.17.44,1.75h.05c.14-.58.26-1.16.39-1.75l.92-3.65h1l-1.69,6.32h-1.3L234,21.11c-.16-.6-.27-1.18-.43-1.82h-.05c-.14.64-.27,1.23-.44,1.83l-.88,3.38H230.9Z"/><path d="M238.48,18.18h1.09l.94,3.65c.14.6.26,1.17.38,1.75h.05c.14-.58.27-1.17.43-1.75l1-3.65h1l1,3.65c.16.6.3,1.17.44,1.75h.05c.14-.58.26-1.16.39-1.75l.92-3.65h1L245.5,24.5h-1.3l-.91-3.39c-.16-.6-.27-1.18-.43-1.82h-.05c-.14.64-.27,1.23-.44,1.83l-.88,3.38h-1.25Z"/><path d="M247.81,23.85a.78.78,0,1,1,1.55,0,.77.77,0,1,1-1.55,0Z"/><path d="M251.27,23.23v-8h1.07V23.3c0,.34.14.47.3.47a.91.91,0,0,0,.23,0l.14.81a1.43,1.43,0,0,1-.61.1C251.6,24.66,251.27,24.15,251.27,23.23Z"/><path d="M254.2,22.86c0-1.38,1.18-2.07,3.87-2.37,0-.81-.26-1.59-1.3-1.59a3.43,3.43,0,0,0-1.88.68l-.42-.74A4.69,4.69,0,0,1,257,18c1.55,0,2.2,1,2.2,2.6V24.5h-.88l-.09-.75h0a3.37,3.37,0,0,1-2.09.91A1.72,1.72,0,0,1,254.2,22.86Zm3.87.09V21.2c-2.11.26-2.83.78-2.83,1.59s.49,1,1.12,1A2.56,2.56,0,0,0,258.07,23Z"/><path d="M261.14,18.18H262l.09.91h0A3,3,0,0,1,264.27,18c1.33,0,1.92.86,1.92,2.47v4h-1.07V20.64c0-1.18-.36-1.69-1.2-1.69-.65,0-1.09.34-1.73,1V24.5h-1.07Z"/><path d="M268,23.85a.78.78,0,1,1,1.55,0,.77.77,0,1,1-1.55,0Z"/><path d="M270.88,21.35a3.06,3.06,0,0,1,3-3.33,2.62,2.62,0,0,1,1.85.74l-.55.7a1.85,1.85,0,0,0-1.26-.56c-1.14,0-2,1-2,2.44s.79,2.42,2,2.42a2.24,2.24,0,0,0,1.48-.64l.47.71a3.08,3.08,0,0,1-2,.81C272.16,24.66,270.88,23.45,270.88,21.35Z"/><path d="M276.53,21.35a2.95,2.95,0,1,1,5.85,0,2.95,2.95,0,1,1-5.85,0Zm4.75,0c0-1.46-.73-2.44-1.82-2.44s-1.82,1-1.82,2.44.74,2.42,1.82,2.42S281.28,22.8,281.28,21.35Z"/><path d="M284,18.18h.88l.09.91h0A2.78,2.78,0,0,1,287,18a1.66,1.66,0,0,1,1.74,1.21A3,3,0,0,1,290.84,18c1.3,0,1.92.86,1.92,2.47v4H291.7V20.64c0-1.18-.38-1.69-1.17-1.69a2.32,2.32,0,0,0-1.59,1V24.5h-1.07V20.64c0-1.18-.38-1.69-1.18-1.69a2.37,2.37,0,0,0-1.59,1V24.5H284Z"/><path d="M297.36,15.27h.78l-3.47,11.31h-.78Z"/><path d="M298.5,21.35a3.06,3.06,0,0,1,3-3.33,2.62,2.62,0,0,1,1.85.74l-.55.7a1.85,1.85,0,0,0-1.26-.56c-1.14,0-2,1-2,2.44s.79,2.42,2,2.42a2.24,2.24,0,0,0,1.48-.64l.47.71a3.08,3.08,0,0,1-2,.81C299.79,24.66,298.5,23.45,298.5,21.35Z"/><path d="M304.16,21.35a2.95,2.95,0,1,1,5.85,0,2.95,2.95,0,1,1-5.85,0Zm4.75,0c0-1.46-.73-2.44-1.82-2.44s-1.82,1-1.82,2.44.74,2.42,1.82,2.42S308.9,22.8,308.9,21.35Z"/><path d="M311.67,18.18h.88l.09.91h0a2.78,2.78,0,0,1,2-1.07,1.66,1.66,0,0,1,1.74,1.21A3,3,0,0,1,318.47,18c1.3,0,1.92.86,1.92,2.47v4h-1.07V20.64c0-1.18-.38-1.69-1.17-1.69a2.32,2.32,0,0,0-1.59,1V24.5H315.5V20.64c0-1.18-.38-1.69-1.18-1.69a2.37,2.37,0,0,0-1.59,1V24.5h-1.07Z"/><path d="M322.45,18.18h.88l.09.73h0a3.27,3.27,0,0,1,2-.88c1.63,0,2.5,1.26,2.5,3.22,0,2.14-1.29,3.41-2.73,3.41a2.93,2.93,0,0,1-1.76-.73l0,1.11v2.13h-1.07Zm4.42,3.07c0-1.39-.47-2.33-1.66-2.33a2.66,2.66,0,0,0-1.69.86V23.1a2.5,2.5,0,0,0,1.55.66C326.1,23.76,326.87,22.81,326.87,21.25Z"/><path d="M329.66,18.18h.88l.09,1.14h0a2.16,2.16,0,0,1,1.79-1.3,1.56,1.56,0,0,1,.68.13l-.21.94a1.76,1.76,0,0,0-.61-.1c-.53,0-1.17.39-1.6,1.46V24.5h-1.07Z"/><path d="M333.47,22.86c0-1.38,1.18-2.07,3.87-2.37,0-.81-.26-1.59-1.3-1.59a3.43,3.43,0,0,0-1.88.68l-.42-.74a4.69,4.69,0,0,1,2.48-.82c1.55,0,2.2,1,2.2,2.6V24.5h-.88l-.09-.75h0a3.37,3.37,0,0,1-2.09.91A1.72,1.72,0,0,1,333.47,22.86Zm3.87.09V21.2c-2.11.26-2.83.78-2.83,1.59s.49,1,1.12,1A2.56,2.56,0,0,0,337.34,23Z"/><path d="M340.41,18.18h.88l.09.73h0a3.27,3.27,0,0,1,2-.88c1.63,0,2.5,1.26,2.5,3.22,0,2.14-1.29,3.41-2.73,3.41a2.93,2.93,0,0,1-1.76-.73l0,1.11v2.13h-1.07Zm4.42,3.07c0-1.39-.47-2.33-1.66-2.33a2.66,2.66,0,0,0-1.69.86V23.1a2.5,2.5,0,0,0,1.55.66C344.06,23.76,344.83,22.81,344.83,21.25Z"/><path d="M347.05,22.86c0-1.38,1.18-2.07,3.87-2.37,0-.81-.26-1.59-1.3-1.59a3.43,3.43,0,0,0-1.88.68l-.42-.74a4.69,4.69,0,0,1,2.48-.82c1.55,0,2.2,1,2.2,2.6V24.5h-.88l-.09-.75h0a3.37,3.37,0,0,1-2.09.91A1.72,1.72,0,0,1,347.05,22.86Zm3.87.09V21.2c-2.11.26-2.83.78-2.83,1.59s.49,1,1.12,1A2.56,2.56,0,0,0,350.93,23Z"/><path d="M353.29,23.79l.53-.71a2.84,2.84,0,0,0,1.86.75c.83,0,1.25-.44,1.25-1s-.75-.94-1.44-1.2c-.9-.33-1.89-.75-1.89-1.82s.81-1.79,2.17-1.79a3.15,3.15,0,0,1,2,.72l-.51.68a2.35,2.35,0,0,0-1.44-.56c-.79,0-1.16.43-1.16.91s.69.82,1.4,1.09c.91.34,1.92.72,1.92,1.91,0,1-.82,1.89-2.31,1.89A3.8,3.8,0,0,1,353.29,23.79Z"/><path d="M359.05,22.86c0-1.38,1.18-2.07,3.87-2.37,0-.81-.26-1.59-1.3-1.59a3.43,3.43,0,0,0-1.88.68l-.42-.74a4.69,4.69,0,0,1,2.48-.82c1.55,0,2.2,1,2.2,2.6V24.5h-.88l-.09-.75h0a3.37,3.37,0,0,1-2.09.91A1.72,1.72,0,0,1,359.05,22.86Zm3.87.09V21.2c-2.11.26-2.83.78-2.83,1.59s.49,1,1.12,1A2.56,2.56,0,0,0,362.93,23Z"/><path d="M364.41,27.15l.22-.81a2,2,0,0,0,.6.1c.62,0,.78-.47.78-1.24v-7h1.07v7c0,1.29-.47,2.11-1.73,2.11A2.51,2.51,0,0,1,364.41,27.15Zm1.4-11a.74.74,0,1,1,.74.69A.7.7,0,0,1,365.81,16.19Z"/><path d="M368.74,21.35A3,3,0,0,1,371.57,18c1.61,0,2.52,1.16,2.52,3a4.07,4.07,0,0,1,0,.61h-4.26a2.1,2.1,0,0,0,2.11,2.2,2.86,2.86,0,0,0,1.57-.49l.38.7a3.76,3.76,0,0,1-2.08.65A3,3,0,0,1,368.74,21.35Zm4.42-.52c0-1.27-.57-2-1.56-2a2,2,0,0,0-1.82,2Z"/><path d="M375,23.79l.53-.71a2.84,2.84,0,0,0,1.86.75c.83,0,1.25-.44,1.25-1s-.75-.94-1.44-1.2c-.9-.33-1.88-.75-1.88-1.82s.81-1.79,2.17-1.79a3.15,3.15,0,0,1,2,.72l-.51.68a2.35,2.35,0,0,0-1.44-.56c-.79,0-1.16.43-1.16.91s.69.82,1.4,1.09c.91.34,1.92.72,1.92,1.91,0,1-.82,1.89-2.31,1.89A3.8,3.8,0,0,1,375,23.79Z"/></g></symbol></defs><title>choose_flight_old</title><g id="Capa_2" data-name="Capa 2"><g id="Objects"><g class="cls-4"><text class="cls-5" transform="translate(1146.15 164.85)">Bad whi<tspan class="cls-6" x="62.01" y="0">t</tspan><tspan x="68.22" y="0">es</tspan><tspan class="cls-7" x="85.1" y="0">p</tspan><tspan x="95.04" y="0">a</tspan><tspan class="cls-8" x="104.33" y="0">c</tspan><tspan x="112.21" y="0">e use and in</tspan><tspan class="cls-9" x="203.34" y="0">f</tspan><tspan x="208.87" y="0">orm</tspan><tspan class="cls-6" x="240.64" y="0">a</tspan><tspan x="249.64" y="0">tion </tspan><tspan x="0" y="21.6">pla</tspan><tspan class="cls-8" x="24.32" y="21.6">c</tspan><tspan x="32.2" y="21.6">ement with no </tspan><tspan class="cls-9" x="147.69" y="21.6">r</tspan><tspan class="cls-7" x="154.22" y="21.6">e</tspan><tspan x="163.13" y="21.6">ason.</tspan></text></g><rect class="cls-1" y="42" width="1080" height="582"/><g class="cls-10"><image width="970" height="651" transform="translate(55 76)" xlink:href="../../New Layout/Lan_viejo_Selecciona-tu-vuelo.png"/></g><use id="Nuevo_símbolo_2-3" data-name="Nuevo símbolo 2" width="1080" height="41" transform="translate(1)" xlink:href="#Nuevo_símbolo_2"/><g class="cls-11"><line class="cls-12" x1="1116" y1="171" x2="351" y2="171"/></g><g class="cls-11"><line class="cls-12" x1="1116" y1="258" x2="1007" y2="258"/></g><g class="cls-11"><line class="cls-12" x1="1116" y1="385" x2="1007" y2="385"/></g><g class="cls-11"><line class="cls-12" x1="1116" y1="567" x2="1007" y2="567"/></g></g><g id="Title"><text class="cls-13" transform="translate(1146.15 104.21)"><tspan class="cls-14">C</tspan><tspan x="16.62" y="0">ur</tspan><tspan class="cls-15" x="42" y="0">r</tspan><tspan x="51.21" y="0">ent design</tspan></text></g><g id="Layer_1" data-name="Layer 1"><text class="cls-16" transform="translate(1146.15 554.43)"><tspan class="cls-17">Dollar ISO <tspan class="cls-8" x="81.11" y="0">c</tspan><tspan x="88.99" y="0">ode</tspan></tspan><tspan class="cls-18"><tspan class="cls-19" x="0" y="21.6">T</tspan><tspan x="8.33" y="21.6">a</tspan><tspan class="cls-20" x="17.41" y="21.6">k</tspan><tspan x="25.99" y="21.6">es </tspan><tspan class="cls-21" x="46.06" y="21.6">t</tspan><tspan x="51.89" y="21.6">oo much s</tspan><tspan class="cls-21" x="128.86" y="21.6">p</tspan><tspan x="138.6" y="21.6">a</tspan><tspan class="cls-22" x="147.67" y="21.6">c</tspan><tspan x="155.5" y="21.6">e and </tspan><tspan class="cls-22" x="0" y="43.2">c</tspan><tspan x="7.83" y="43.2">omp</tspan><tspan class="cls-9" x="42.5" y="43.2">r</tspan><tspan x="48.56" y="43.2">omises l</tspan><tspan class="cls-9" x="109.87" y="43.2">e</tspan><tspan x="118.62" y="43.2">gibilt</tspan><tspan class="cls-23" x="157.17" y="43.2">y</tspan><tspan x="164.95" y="43.2">.</tspan></tspan></text><text class="cls-16" transform="translate(1146.15 382.44)"><tspan class="cls-17"><tspan class="cls-24">L</tspan><tspan class="cls-25" x="8.8" y="0">e</tspan><tspan x="17.75" y="0">gibility issues:</tspan></tspan><tspan class="cls-18"><tspan class="cls-7" x="0" y="21.6">L</tspan><tspan class="cls-26" x="8.53" y="21.6">o</tspan><tspan x="18.22" y="21.6">w </tspan><tspan class="cls-22" x="34.74" y="21.6">c</tspan><tspan x="42.57" y="21.6">ont</tspan><tspan class="cls-8" x="68.25" y="21.6">r</tspan><tspan x="74.07" y="21.6">a</tspan><tspan class="cls-27" x="83.14" y="21.6">s</tspan><tspan x="90.32" y="21.6">t b</tspan><tspan class="cls-25" x="109.96" y="21.6">e</tspan><tspan x="118.71" y="21.6">t</tspan><tspan class="cls-28" x="124.79" y="21.6">w</tspan><tspan x="137.65" y="21.6">een g</tspan><tspan class="cls-9" x="178.02" y="21.6">r</tspan><tspan class="cls-29" x="184.08" y="21.6">e</tspan><tspan x="193.1" y="21.6">y </tspan><tspan class="cls-21" x="0" y="43.2">b</tspan><tspan x="9.7" y="43.2">ac</tspan><tspan class="cls-9" x="26.98" y="43.2">k</tspan><tspan x="35.71" y="43.2">g</tspan><tspan class="cls-9" x="44.79" y="43.2">r</tspan><tspan x="50.85" y="43.2">ound and whi</tspan><tspan class="cls-21" x="153.49" y="43.2">t</tspan><tspan x="159.32" y="43.2">e </tspan><tspan class="cls-9" x="171.85" y="43.2">f</tspan><tspan x="176.92" y="43.2">on</tspan><tspan class="cls-30" x="196.52" y="43.2">t</tspan><tspan x="202.73" y="43.2">. </tspan></tspan></text><text class="cls-31" transform="translate(1146.15 262.8)"><tspan class="cls-32">V</tspan><tspan x="9.34" y="0">erti</tspan><tspan class="cls-25" x="36.4" y="0">c</tspan><tspan x="44.53" y="0">ally misaligned </tspan><tspan class="cls-22" x="164.93" y="0">t</tspan><tspan x="171.05" y="0">able h</tspan><tspan class="cls-7" x="218.12" y="0">e</tspan><tspan x="227.03" y="0">ader</tspan></text><text class="cls-16" transform="translate(10.68 806.02)"><tspan class="cls-17">Flight <tspan class="cls-8" x="48.27" y="0">c</tspan><tspan x="56.16" y="0">onne</tspan><tspan class="cls-9" x="95.33" y="0">c</tspan><tspan x="103.46" y="0">tions:</tspan></tspan><tspan class="cls-18"><tspan x="0" y="21.6">Lack of whi</tspan><tspan class="cls-21" x="84.29" y="21.6">t</tspan><tspan x="90.13" y="21.6">es</tspan><tspan class="cls-21" x="106.59" y="21.6">p</tspan><tspan x="116.33" y="21.6">a</tspan><tspan class="cls-22" x="125.41" y="21.6">c</tspan><tspan x="133.24" y="21.6">e ma</tspan><tspan class="cls-33" x="169.76" y="21.6">k</tspan><tspan x="178.34" y="21.6">e </tspan><tspan x="0" y="43.2">crucial in</tspan><tspan class="cls-9" x="68.42" y="43.2">f</tspan><tspan x="73.49" y="43.2">orm</tspan><tspan class="cls-21" x="104.42" y="43.2">a</tspan><tspan x="113.24" y="43.2">tion ha</tspan><tspan class="cls-9" x="165.81" y="43.2">r</tspan><tspan x="171.88" y="43.2">d </tspan><tspan class="cls-21" x="185.47" y="43.2">t</tspan><tspan x="191.3" y="43.2">o </tspan><tspan x="0" y="64.8">unde</tspan><tspan class="cls-26" x="38.56" y="64.8">r</tspan><tspan class="cls-27" x="44.73" y="64.8">s</tspan><tspan class="cls-22" x="51.91" y="64.8">t</tspan><tspan x="57.62" y="64.8">and or dis</tspan><tspan class="cls-22" x="131.69" y="64.8">c</tspan><tspan class="cls-26" x="139.52" y="64.8">ov</tspan><tspan x="157.54" y="64.8">e</tspan><tspan class="cls-34" x="166.46" y="64.8">r</tspan><tspan x="171.68" y="64.8">.</tspan></tspan></text><text class="cls-16" transform="translate(288.61 717.35)"><tspan class="cls-17">Airport <tspan class="cls-8" x="58.32" y="0">c</tspan><tspan x="66.2" y="0">ode:</tspan></tspan><tspan class="cls-18"><tspan x="0" y="21.6">Airport </tspan><tspan class="cls-22" x="56.14" y="21.6">c</tspan><tspan x="63.97" y="21.6">ode app</tspan><tspan class="cls-21" x="125.3" y="21.6">e</tspan><tspan x="133.97" y="21.6">a</tspan><tspan class="cls-26" x="143.05" y="21.6">r</tspan><tspan x="149.22" y="21.6">s </tspan><tspan class="cls-9" x="0" y="43.2">r</tspan><tspan x="6.07" y="43.2">ep</tspan><tspan class="cls-21" x="24.98" y="43.2">eat</tspan><tspan x="48.31" y="43.2">ed in </tspan><tspan class="cls-29" x="88.7" y="43.2">e</tspan><tspan class="cls-26" x="97.72" y="43.2">v</tspan><tspan x="106.05" y="43.2">e</tspan><tspan class="cls-35" x="114.98" y="43.2">r</tspan><tspan x="121.68" y="43.2">y </tspan><tspan class="cls-9" x="133.68" y="43.2">r</tspan><tspan class="cls-26" x="139.75" y="43.2">o</tspan><tspan class="cls-36" x="149.43" y="43.2">w</tspan><tspan x="161.62" y="43.2">.</tspan></tspan></text><text class="cls-16" transform="translate(10.68 717.35)"><tspan class="cls-17">Plane model in<tspan class="cls-9" x="115.05" y="0">f</tspan><tspan x="120.58" y="0">o:</tspan></tspan><tspan class="cls-18"><tspan x="0" y="21.6">Ir</tspan><tspan class="cls-9" x="10.98" y="21.6">r</tspan><tspan x="17.05" y="21.6">el</tspan><tspan class="cls-29" x="30.56" y="21.6">e</tspan><tspan class="cls-37" x="39.58" y="21.6">v</tspan><tspan x="47.63" y="21.6">ant in</tspan><tspan class="cls-9" x="90.5" y="21.6">f</tspan><tspan x="95.58" y="21.6">o which </tspan><tspan x="0" y="43.2">clu</tspan><tspan class="cls-27" x="22.59" y="43.2">t</tspan><tspan class="cls-21" x="28.31" y="43.2">t</tspan><tspan x="34.15" y="43.2">e</tspan><tspan class="cls-26" x="43.07" y="43.2">r</tspan><tspan x="49.25" y="43.2">s the </tspan><tspan class="cls-22" x="88.79" y="43.2">t</tspan><tspan x="94.5" y="43.2">able.</tspan></tspan></text><g class="cls-11"><line class="cls-12" x1="109" y1="690" x2="109" y2="619"/></g><g class="cls-11"><line class="cls-12" x1="344" y1="690" x2="344" y2="619"/></g></g></g></svg>